<mxfile host="Electron" modified="2023-04-07T06:16:18.639Z" agent="Mozilla/5.0 (Windows NT 10.0; Win64; x64) AppleWebKit/537.36 (KHTML, like Gecko) draw.io/21.1.2 Chrome/106.0.5249.199 Electron/21.4.3 Safari/537.36" etag="0nVbdOSgnJbNaluXWUoi" version="21.1.2" type="device">
  <diagram name="Page-1" id="e7e014a7-5840-1c2e-5031-d8a46d1fe8dd">
    <mxGraphModel dx="742" dy="489" grid="1" gridSize="10" guides="1" tooltips="1" connect="1" arrows="1" fold="1" page="1" pageScale="1" pageWidth="1169" pageHeight="826" background="none" math="0" shadow="0">
      <root>
        <mxCell id="0" />
        <mxCell id="1" parent="0" />
        <mxCell id="2" value="Actor (oap-logstream, oap-statsdb)" style="swimlane;whiteSpace=wrap" parent="1" vertex="1">
          <mxGeometry x="164.5" y="128" width="280" height="672" as="geometry" />
        </mxCell>
        <mxCell id="5" value="" style="ellipse;shape=startState;fillColor=#000000;strokeColor=#ff0000;" parent="2" vertex="1">
          <mxGeometry x="125" y="40" width="30" height="30" as="geometry" />
        </mxCell>
        <mxCell id="6" value="" style="edgeStyle=elbowEdgeStyle;elbow=horizontal;verticalAlign=bottom;endArrow=open;endSize=8;strokeColor=#FF0000;endFill=1;rounded=0;entryX=0.496;entryY=-0.023;entryDx=0;entryDy=0;entryPerimeter=0;" parent="2" source="5" target="7" edge="1">
          <mxGeometry x="100" y="40" as="geometry">
            <mxPoint x="115" y="110" as="targetPoint" />
          </mxGeometry>
        </mxCell>
        <mxCell id="7" value="add a message of type N to the queue" style="" parent="2" vertex="1">
          <mxGeometry x="20" y="110" width="240" height="50" as="geometry" />
        </mxCell>
        <mxCell id="3" value="oap-message-client" style="swimlane;whiteSpace=wrap" parent="1" vertex="1">
          <mxGeometry x="445" y="130" width="445" height="670" as="geometry" />
        </mxCell>
        <mxCell id="4_Nr4Ep6qe_nJGa1sTPp-54" style="edgeStyle=orthogonalEdgeStyle;rounded=0;orthogonalLoop=1;jettySize=auto;html=1;entryX=0.32;entryY=-0.055;entryDx=0;entryDy=0;entryPerimeter=0;" edge="1" parent="3" target="16">
          <mxGeometry relative="1" as="geometry">
            <mxPoint x="89.5" y="282" as="sourcePoint" />
            <Array as="points">
              <mxPoint x="59.5" y="310" />
            </Array>
          </mxGeometry>
        </mxCell>
        <mxCell id="15" value="Connect to the server" style="" parent="3" vertex="1">
          <mxGeometry x="40" y="230" width="140" height="50" as="geometry" />
        </mxCell>
        <mxCell id="16" value="check queue on&#xa;new messages" style="" parent="3" vertex="1">
          <mxGeometry x="24.5" y="340" width="110" height="50" as="geometry" />
        </mxCell>
        <mxCell id="21" value="queue empty" style="rhombus;fillColor=#ffffc0;strokeColor=#ff0000;" parent="3" vertex="1">
          <mxGeometry x="154.5" y="345" width="80" height="40" as="geometry" />
        </mxCell>
        <mxCell id="22" value="yes" style="edgeStyle=elbowEdgeStyle;elbow=horizontal;align=left;verticalAlign=bottom;endArrow=open;endSize=8;strokeColor=#FF0000;exitX=0.5;exitY=0;endFill=1;rounded=0;entryX=0.688;entryY=-0.042;entryPerimeter=0;entryDx=0;entryDy=0;" parent="3" source="21" target="16" edge="1">
          <mxGeometry x="-1" relative="1" as="geometry">
            <mxPoint x="159.5" y="267.5" as="targetPoint" />
            <Array as="points">
              <mxPoint x="194.5" y="300" />
            </Array>
          </mxGeometry>
        </mxCell>
        <mxCell id="23" value="no" style="edgeStyle=elbowEdgeStyle;elbow=horizontal;align=left;verticalAlign=top;endArrow=open;endSize=8;strokeColor=#FF0000;endFill=1;rounded=0;entryX=0.484;entryY=0.025;entryDx=0;entryDy=0;entryPerimeter=0;" parent="3" source="21" target="30" edge="1">
          <mxGeometry x="-1" relative="1" as="geometry">
            <mxPoint x="194.5" y="425" as="targetPoint" />
          </mxGeometry>
        </mxCell>
        <mxCell id="24" value="" style="endArrow=open;strokeColor=#FF0000;endFill=1;rounded=0;exitX=1.036;exitY=0.461;exitDx=0;exitDy=0;exitPerimeter=0;" parent="3" source="16" target="21" edge="1">
          <mxGeometry relative="1" as="geometry">
            <mxPoint x="139.5" y="365" as="sourcePoint" />
          </mxGeometry>
        </mxCell>
        <mxCell id="30" value="send a message" style="" parent="3" vertex="1">
          <mxGeometry x="124.5" y="485" width="110" height="50" as="geometry" />
        </mxCell>
        <mxCell id="4_Nr4Ep6qe_nJGa1sTPp-48" value="" style="ellipse;html=1;shape=startState;fillColor=#000000;strokeColor=#ff0000;" vertex="1" parent="3">
          <mxGeometry x="104.5" y="42" width="30" height="30" as="geometry" />
        </mxCell>
        <mxCell id="4_Nr4Ep6qe_nJGa1sTPp-49" value="" style="edgeStyle=orthogonalEdgeStyle;html=1;verticalAlign=bottom;endArrow=open;endSize=8;strokeColor=#ff0000;rounded=0;exitX=0.5;exitY=1;exitDx=0;exitDy=0;entryX=0.569;entryY=0.021;entryDx=0;entryDy=0;entryPerimeter=0;" edge="1" source="4_Nr4Ep6qe_nJGa1sTPp-48" parent="3" target="4_Nr4Ep6qe_nJGa1sTPp-55">
          <mxGeometry relative="1" as="geometry">
            <mxPoint x="120" y="232" as="targetPoint" />
            <mxPoint x="119.5" y="192" as="sourcePoint" />
          </mxGeometry>
        </mxCell>
        <mxCell id="4_Nr4Ep6qe_nJGa1sTPp-68" style="edgeStyle=orthogonalEdgeStyle;rounded=0;orthogonalLoop=1;jettySize=auto;html=1;entryX=0.25;entryY=0.5;entryDx=0;entryDy=0;entryPerimeter=0;" edge="1" parent="3" source="4_Nr4Ep6qe_nJGa1sTPp-55" target="4_Nr4Ep6qe_nJGa1sTPp-57">
          <mxGeometry relative="1" as="geometry" />
        </mxCell>
        <mxCell id="4_Nr4Ep6qe_nJGa1sTPp-55" value="Load message queue &#xa;from disk" style="" vertex="1" parent="3">
          <mxGeometry x="40" y="122" width="140" height="50" as="geometry" />
        </mxCell>
        <mxCell id="4_Nr4Ep6qe_nJGa1sTPp-69" style="edgeStyle=orthogonalEdgeStyle;rounded=0;orthogonalLoop=1;jettySize=auto;html=1;entryX=0.998;entryY=0.576;entryDx=0;entryDy=0;entryPerimeter=0;" edge="1" parent="3" source="4_Nr4Ep6qe_nJGa1sTPp-57" target="15">
          <mxGeometry relative="1" as="geometry" />
        </mxCell>
        <mxCell id="4_Nr4Ep6qe_nJGa1sTPp-57" value="" style="shape=line;html=1;strokeWidth=6;strokeColor=#ff0000;" vertex="1" parent="3">
          <mxGeometry x="109.75" y="200" width="225.5" height="10" as="geometry" />
        </mxCell>
        <mxCell id="4_Nr4Ep6qe_nJGa1sTPp-70" value="Shutdown" style="rhombus;whiteSpace=wrap;html=1;fontColor=#000000;fillColor=#ffffc0;strokeColor=#ff0000;" vertex="1" parent="3">
          <mxGeometry x="275" y="245" width="80" height="40" as="geometry" />
        </mxCell>
        <mxCell id="4_Nr4Ep6qe_nJGa1sTPp-71" value="no" style="edgeStyle=orthogonalEdgeStyle;html=1;align=left;verticalAlign=bottom;endArrow=open;endSize=8;strokeColor=#ff0000;rounded=0;" edge="1" source="4_Nr4Ep6qe_nJGa1sTPp-70" parent="3">
          <mxGeometry x="-1" relative="1" as="geometry">
            <mxPoint x="375" y="220" as="targetPoint" />
          </mxGeometry>
        </mxCell>
        <mxCell id="4_Nr4Ep6qe_nJGa1sTPp-72" value="yes" style="edgeStyle=orthogonalEdgeStyle;html=1;align=left;verticalAlign=top;endArrow=open;endSize=8;strokeColor=#ff0000;rounded=0;" edge="1" source="4_Nr4Ep6qe_nJGa1sTPp-70" parent="3">
          <mxGeometry x="-1" relative="1" as="geometry">
            <mxPoint x="315" y="345" as="targetPoint" />
          </mxGeometry>
        </mxCell>
        <mxCell id="4_Nr4Ep6qe_nJGa1sTPp-76" style="edgeStyle=orthogonalEdgeStyle;rounded=0;orthogonalLoop=1;jettySize=auto;html=1;entryX=0.5;entryY=0;entryDx=0;entryDy=0;" edge="1" parent="3" source="4_Nr4Ep6qe_nJGa1sTPp-74" target="4_Nr4Ep6qe_nJGa1sTPp-75">
          <mxGeometry relative="1" as="geometry" />
        </mxCell>
        <mxCell id="4_Nr4Ep6qe_nJGa1sTPp-74" value="Save message queue &#xa;to disk" style="" vertex="1" parent="3">
          <mxGeometry x="245" y="345" width="140" height="50" as="geometry" />
        </mxCell>
        <mxCell id="4_Nr4Ep6qe_nJGa1sTPp-75" value="" style="ellipse;html=1;shape=endState;fillColor=#000000;strokeColor=#ff0000;" vertex="1" parent="3">
          <mxGeometry x="300" y="455" width="30" height="30" as="geometry" />
        </mxCell>
        <mxCell id="4_Nr4Ep6qe_nJGa1sTPp-77" value="" style="endArrow=classic;html=1;rounded=0;entryX=0.5;entryY=0;entryDx=0;entryDy=0;" edge="1" parent="3" target="4_Nr4Ep6qe_nJGa1sTPp-70">
          <mxGeometry width="50" height="50" relative="1" as="geometry">
            <mxPoint x="315" y="205" as="sourcePoint" />
            <mxPoint x="245" y="320" as="targetPoint" />
            <Array as="points" />
          </mxGeometry>
        </mxCell>
        <mxCell id="4_Nr4Ep6qe_nJGa1sTPp-79" value="no" style="edgeStyle=orthogonalEdgeStyle;html=1;align=left;verticalAlign=bottom;endArrow=open;endSize=8;strokeColor=#ff0000;rounded=0;" edge="1" parent="3" source="4_Nr4Ep6qe_nJGa1sTPp-70">
          <mxGeometry x="-1" relative="1" as="geometry">
            <mxPoint x="315" y="220" as="targetPoint" />
            <mxPoint x="800" y="395" as="sourcePoint" />
            <Array as="points">
              <mxPoint x="375" y="265" />
            </Array>
          </mxGeometry>
        </mxCell>
        <mxCell id="4_Nr4Ep6qe_nJGa1sTPp-156" style="edgeStyle=orthogonalEdgeStyle;rounded=0;orthogonalLoop=1;jettySize=auto;html=1;entryX=0.176;entryY=1.071;entryDx=0;entryDy=0;entryPerimeter=0;exitX=-0.021;exitY=0.515;exitDx=0;exitDy=0;exitPerimeter=0;" edge="1" parent="3" source="4_Nr4Ep6qe_nJGa1sTPp-148" target="16">
          <mxGeometry relative="1" as="geometry">
            <Array as="points">
              <mxPoint x="44" y="586" />
            </Array>
          </mxGeometry>
        </mxCell>
        <mxCell id="4_Nr4Ep6qe_nJGa1sTPp-148" value="remove message &#xa;from queue" style="" vertex="1" parent="3">
          <mxGeometry x="124.5" y="560" width="110" height="50" as="geometry" />
        </mxCell>
        <mxCell id="4" value="oap-message-server" style="swimlane;whiteSpace=wrap" parent="1" vertex="1">
          <mxGeometry x="889" y="130" width="441" height="670" as="geometry" />
        </mxCell>
        <mxCell id="4_Nr4Ep6qe_nJGa1sTPp-103" style="edgeStyle=orthogonalEdgeStyle;rounded=0;orthogonalLoop=1;jettySize=auto;html=1;entryX=0.497;entryY=0.027;entryDx=0;entryDy=0;entryPerimeter=0;" edge="1" parent="4" source="4_Nr4Ep6qe_nJGa1sTPp-45" target="4_Nr4Ep6qe_nJGa1sTPp-99">
          <mxGeometry relative="1" as="geometry" />
        </mxCell>
        <mxCell id="4_Nr4Ep6qe_nJGa1sTPp-45" value="waiting for connection" style="" vertex="1" parent="4">
          <mxGeometry x="70" y="210" width="140" height="50" as="geometry" />
        </mxCell>
        <mxCell id="4_Nr4Ep6qe_nJGa1sTPp-46" value="" style="ellipse;html=1;shape=startState;fillColor=#000000;strokeColor=#ff0000;" vertex="1" parent="4">
          <mxGeometry x="125" y="42" width="30" height="30" as="geometry" />
        </mxCell>
        <mxCell id="4_Nr4Ep6qe_nJGa1sTPp-47" value="" style="edgeStyle=orthogonalEdgeStyle;html=1;verticalAlign=bottom;endArrow=open;endSize=8;strokeColor=#ff0000;rounded=0;" edge="1" source="4_Nr4Ep6qe_nJGa1sTPp-46" parent="4">
          <mxGeometry relative="1" as="geometry">
            <mxPoint x="140" y="112" as="targetPoint" />
          </mxGeometry>
        </mxCell>
        <mxCell id="4_Nr4Ep6qe_nJGa1sTPp-83" style="edgeStyle=orthogonalEdgeStyle;rounded=0;orthogonalLoop=1;jettySize=auto;html=1;entryX=0.194;entryY=0.509;entryDx=0;entryDy=0;entryPerimeter=0;" edge="1" parent="4" source="4_Nr4Ep6qe_nJGa1sTPp-80" target="4_Nr4Ep6qe_nJGa1sTPp-81">
          <mxGeometry relative="1" as="geometry" />
        </mxCell>
        <mxCell id="4_Nr4Ep6qe_nJGa1sTPp-80" value="Load hashes&#xa;from disk" style="" vertex="1" parent="4">
          <mxGeometry x="70" y="110" width="140" height="50" as="geometry" />
        </mxCell>
        <mxCell id="4_Nr4Ep6qe_nJGa1sTPp-85" style="edgeStyle=orthogonalEdgeStyle;rounded=0;orthogonalLoop=1;jettySize=auto;html=1;entryX=0.507;entryY=0;entryDx=0;entryDy=0;entryPerimeter=0;exitX=0.196;exitY=0.572;exitDx=0;exitDy=0;exitPerimeter=0;" edge="1" parent="4" source="4_Nr4Ep6qe_nJGa1sTPp-81" target="4_Nr4Ep6qe_nJGa1sTPp-45">
          <mxGeometry relative="1" as="geometry" />
        </mxCell>
        <mxCell id="4_Nr4Ep6qe_nJGa1sTPp-98" style="edgeStyle=orthogonalEdgeStyle;rounded=0;orthogonalLoop=1;jettySize=auto;html=1;entryX=0.5;entryY=0;entryDx=0;entryDy=0;exitX=0.778;exitY=0.798;exitDx=0;exitDy=0;exitPerimeter=0;" edge="1" parent="4" source="4_Nr4Ep6qe_nJGa1sTPp-81" target="4_Nr4Ep6qe_nJGa1sTPp-92">
          <mxGeometry relative="1" as="geometry" />
        </mxCell>
        <mxCell id="4_Nr4Ep6qe_nJGa1sTPp-81" value="" style="shape=line;html=1;strokeWidth=6;strokeColor=#ff0000;" vertex="1" parent="4">
          <mxGeometry x="70" y="180" width="360" height="10" as="geometry" />
        </mxCell>
        <mxCell id="4_Nr4Ep6qe_nJGa1sTPp-92" value="Shutdown" style="rhombus;whiteSpace=wrap;html=1;fontColor=#000000;fillColor=#ffffc0;strokeColor=#ff0000;" vertex="1" parent="4">
          <mxGeometry x="310" y="235" width="80" height="40" as="geometry" />
        </mxCell>
        <mxCell id="4_Nr4Ep6qe_nJGa1sTPp-93" value="no" style="edgeStyle=orthogonalEdgeStyle;html=1;align=left;verticalAlign=bottom;endArrow=open;endSize=8;strokeColor=#ff0000;rounded=0;" edge="1" parent="4" source="4_Nr4Ep6qe_nJGa1sTPp-92">
          <mxGeometry x="-1" relative="1" as="geometry">
            <mxPoint x="410" y="210" as="targetPoint" />
          </mxGeometry>
        </mxCell>
        <mxCell id="4_Nr4Ep6qe_nJGa1sTPp-94" value="yes" style="edgeStyle=orthogonalEdgeStyle;html=1;align=left;verticalAlign=top;endArrow=open;endSize=8;strokeColor=#ff0000;rounded=0;" edge="1" parent="4" source="4_Nr4Ep6qe_nJGa1sTPp-92">
          <mxGeometry x="-1" relative="1" as="geometry">
            <mxPoint x="350" y="335" as="targetPoint" />
          </mxGeometry>
        </mxCell>
        <mxCell id="4_Nr4Ep6qe_nJGa1sTPp-122" style="edgeStyle=orthogonalEdgeStyle;rounded=0;orthogonalLoop=1;jettySize=auto;html=1;" edge="1" parent="4" source="4_Nr4Ep6qe_nJGa1sTPp-96" target="4_Nr4Ep6qe_nJGa1sTPp-121">
          <mxGeometry relative="1" as="geometry" />
        </mxCell>
        <mxCell id="4_Nr4Ep6qe_nJGa1sTPp-96" value="Save hashes&#xa;to disk" style="" vertex="1" parent="4">
          <mxGeometry x="280" y="335" width="140" height="50" as="geometry" />
        </mxCell>
        <mxCell id="4_Nr4Ep6qe_nJGa1sTPp-97" value="no" style="edgeStyle=orthogonalEdgeStyle;html=1;align=left;verticalAlign=bottom;endArrow=open;endSize=8;strokeColor=#ff0000;rounded=0;" edge="1" parent="4" source="4_Nr4Ep6qe_nJGa1sTPp-92">
          <mxGeometry x="-1" relative="1" as="geometry">
            <mxPoint x="350" y="210" as="targetPoint" />
            <mxPoint x="835" y="385" as="sourcePoint" />
            <Array as="points">
              <mxPoint x="410" y="255" />
            </Array>
          </mxGeometry>
        </mxCell>
        <mxCell id="4_Nr4Ep6qe_nJGa1sTPp-147" style="edgeStyle=orthogonalEdgeStyle;rounded=0;orthogonalLoop=1;jettySize=auto;html=1;entryX=0.5;entryY=0;entryDx=0;entryDy=0;" edge="1" parent="4" source="4_Nr4Ep6qe_nJGa1sTPp-99" target="4_Nr4Ep6qe_nJGa1sTPp-142">
          <mxGeometry relative="1" as="geometry" />
        </mxCell>
        <mxCell id="4_Nr4Ep6qe_nJGa1sTPp-99" value="Process message" style="" vertex="1" parent="4">
          <mxGeometry x="70" y="283" width="140" height="40" as="geometry" />
        </mxCell>
        <mxCell id="4_Nr4Ep6qe_nJGa1sTPp-121" value="" style="ellipse;html=1;shape=endState;fillColor=#000000;strokeColor=#ff0000;" vertex="1" parent="4">
          <mxGeometry x="335" y="410" width="30" height="30" as="geometry" />
        </mxCell>
        <mxCell id="4_Nr4Ep6qe_nJGa1sTPp-164" style="edgeStyle=orthogonalEdgeStyle;rounded=0;orthogonalLoop=1;jettySize=auto;html=1;entryX=0.5;entryY=0;entryDx=0;entryDy=0;" edge="1" parent="4" source="4_Nr4Ep6qe_nJGa1sTPp-142" target="4_Nr4Ep6qe_nJGa1sTPp-160">
          <mxGeometry relative="1" as="geometry">
            <Array as="points">
              <mxPoint x="191" y="370" />
            </Array>
          </mxGeometry>
        </mxCell>
        <mxCell id="4_Nr4Ep6qe_nJGa1sTPp-142" value="handler for this type" style="rhombus;whiteSpace=wrap;html=1;fontColor=#000000;fillColor=#ffffc0;strokeColor=#ff0000;" vertex="1" parent="4">
          <mxGeometry x="100" y="350" width="80" height="40" as="geometry" />
        </mxCell>
        <mxCell id="4_Nr4Ep6qe_nJGa1sTPp-149" value="Error" style="rhombus;whiteSpace=wrap;html=1;fontColor=#000000;fillColor=#ffffc0;strokeColor=#ff0000;" vertex="1" parent="4">
          <mxGeometry x="231" y="510" width="80" height="40" as="geometry" />
        </mxCell>
        <mxCell id="4_Nr4Ep6qe_nJGa1sTPp-150" value="no" style="edgeStyle=orthogonalEdgeStyle;html=1;align=left;verticalAlign=bottom;endArrow=open;endSize=8;strokeColor=#ff0000;rounded=0;entryX=0.51;entryY=-0.079;entryDx=0;entryDy=0;entryPerimeter=0;" edge="1" source="4_Nr4Ep6qe_nJGa1sTPp-149" parent="4" target="4_Nr4Ep6qe_nJGa1sTPp-152">
          <mxGeometry x="-1" relative="1" as="geometry">
            <mxPoint x="411" y="530" as="targetPoint" />
            <Array as="points">
              <mxPoint x="351" y="530" />
            </Array>
          </mxGeometry>
        </mxCell>
        <mxCell id="4_Nr4Ep6qe_nJGa1sTPp-152" value="Register hash" style="" vertex="1" parent="4">
          <mxGeometry x="290" y="570" width="120" height="40" as="geometry" />
        </mxCell>
        <mxCell id="4_Nr4Ep6qe_nJGa1sTPp-160" value="Hash exists" style="rhombus;whiteSpace=wrap;html=1;fontColor=#000000;fillColor=#ffffc0;strokeColor=#ff0000;" vertex="1" parent="4">
          <mxGeometry x="151" y="410" width="80" height="40" as="geometry" />
        </mxCell>
        <mxCell id="4_Nr4Ep6qe_nJGa1sTPp-162" value="yes, duplicate" style="edgeStyle=orthogonalEdgeStyle;html=1;align=left;verticalAlign=top;endArrow=open;endSize=8;strokeColor=#ff0000;rounded=0;" edge="1" source="4_Nr4Ep6qe_nJGa1sTPp-160" parent="4">
          <mxGeometry x="-0.8182" y="-20" relative="1" as="geometry">
            <mxPoint x="141" y="510" as="targetPoint" />
            <Array as="points">
              <mxPoint x="191" y="510" />
            </Array>
            <mxPoint as="offset" />
          </mxGeometry>
        </mxCell>
        <mxCell id="4_Nr4Ep6qe_nJGa1sTPp-53" style="edgeStyle=orthogonalEdgeStyle;rounded=0;orthogonalLoop=1;jettySize=auto;html=1;entryX=0.009;entryY=0.603;entryDx=0;entryDy=0;entryPerimeter=0;" edge="1" parent="1" target="16">
          <mxGeometry relative="1" as="geometry">
            <mxPoint x="305" y="290" as="sourcePoint" />
            <Array as="points">
              <mxPoint x="305" y="498" />
            </Array>
          </mxGeometry>
        </mxCell>
        <mxCell id="4_Nr4Ep6qe_nJGa1sTPp-104" value="server actor(oap-logstream, oap-statsdb)" style="swimlane;whiteSpace=wrap" vertex="1" parent="1">
          <mxGeometry x="1330" y="130" width="290" height="670" as="geometry" />
        </mxCell>
        <mxCell id="4_Nr4Ep6qe_nJGa1sTPp-141" value="message processing" style="" vertex="1" parent="4_Nr4Ep6qe_nJGa1sTPp-104">
          <mxGeometry x="50" y="435" width="140" height="50" as="geometry" />
        </mxCell>
        <mxCell id="4_Nr4Ep6qe_nJGa1sTPp-146" style="edgeStyle=orthogonalEdgeStyle;rounded=0;orthogonalLoop=1;jettySize=auto;html=1;entryX=-0.005;entryY=0.528;entryDx=0;entryDy=0;entryPerimeter=0;" edge="1" parent="1" target="4_Nr4Ep6qe_nJGa1sTPp-99">
          <mxGeometry relative="1" as="geometry">
            <mxPoint x="680" y="640" as="sourcePoint" />
            <Array as="points">
              <mxPoint x="850" y="640" />
              <mxPoint x="850" y="434" />
            </Array>
          </mxGeometry>
        </mxCell>
        <mxCell id="4_Nr4Ep6qe_nJGa1sTPp-143" value="no, noretry" style="edgeStyle=orthogonalEdgeStyle;html=1;align=left;verticalAlign=bottom;endArrow=open;endSize=8;strokeColor=#ff0000;rounded=0;entryX=1.002;entryY=0.586;entryDx=0;entryDy=0;entryPerimeter=0;" edge="1" source="4_Nr4Ep6qe_nJGa1sTPp-142" parent="1" target="4_Nr4Ep6qe_nJGa1sTPp-148">
          <mxGeometry x="-0.9252" y="-19" relative="1" as="geometry">
            <mxPoint x="740" y="730" as="targetPoint" />
            <Array as="points">
              <mxPoint x="1029" y="719" />
            </Array>
            <mxPoint as="offset" />
          </mxGeometry>
        </mxCell>
        <mxCell id="4_Nr4Ep6qe_nJGa1sTPp-153" style="edgeStyle=orthogonalEdgeStyle;rounded=0;orthogonalLoop=1;jettySize=auto;html=1;exitX=0.513;exitY=1.023;exitDx=0;exitDy=0;exitPerimeter=0;" edge="1" parent="1" source="4_Nr4Ep6qe_nJGa1sTPp-141" target="4_Nr4Ep6qe_nJGa1sTPp-149">
          <mxGeometry relative="1" as="geometry">
            <mxPoint x="1470" y="660" as="sourcePoint" />
            <Array as="points">
              <mxPoint x="1450" y="616" />
              <mxPoint x="1450" y="630" />
              <mxPoint x="1160" y="630" />
            </Array>
          </mxGeometry>
        </mxCell>
        <mxCell id="4_Nr4Ep6qe_nJGa1sTPp-151" value="yes, retry" style="edgeStyle=orthogonalEdgeStyle;html=1;align=left;verticalAlign=top;endArrow=open;endSize=8;strokeColor=#ff0000;rounded=0;entryX=0.443;entryY=1.089;entryDx=0;entryDy=0;entryPerimeter=0;exitX=0;exitY=0.5;exitDx=0;exitDy=0;" edge="1" source="4_Nr4Ep6qe_nJGa1sTPp-149" parent="1" target="16">
          <mxGeometry x="-0.8378" y="-23" relative="1" as="geometry">
            <mxPoint x="710" y="670" as="targetPoint" />
            <Array as="points">
              <mxPoint x="1120" y="680" />
              <mxPoint x="518" y="680" />
            </Array>
            <mxPoint as="offset" />
          </mxGeometry>
        </mxCell>
        <mxCell id="4_Nr4Ep6qe_nJGa1sTPp-155" style="edgeStyle=orthogonalEdgeStyle;rounded=0;orthogonalLoop=1;jettySize=auto;html=1;entryX=0.521;entryY=1.04;entryDx=0;entryDy=0;entryPerimeter=0;exitX=0.489;exitY=1.028;exitDx=0;exitDy=0;exitPerimeter=0;" edge="1" parent="1" source="4_Nr4Ep6qe_nJGa1sTPp-152" target="4_Nr4Ep6qe_nJGa1sTPp-148">
          <mxGeometry relative="1" as="geometry">
            <mxPoint x="800" y="770" as="targetPoint" />
            <Array as="points">
              <mxPoint x="1238" y="760" />
              <mxPoint x="627" y="760" />
            </Array>
          </mxGeometry>
        </mxCell>
        <mxCell id="4_Nr4Ep6qe_nJGa1sTPp-161" value="no" style="edgeStyle=orthogonalEdgeStyle;html=1;align=left;verticalAlign=bottom;endArrow=open;endSize=8;strokeColor=#ff0000;rounded=0;entryX=-0.005;entryY=0.624;entryDx=0;entryDy=0;entryPerimeter=0;" edge="1" source="4_Nr4Ep6qe_nJGa1sTPp-160" parent="1" target="4_Nr4Ep6qe_nJGa1sTPp-141">
          <mxGeometry x="-1" relative="1" as="geometry">
            <mxPoint x="1220" y="560" as="targetPoint" />
            <Array as="points">
              <mxPoint x="1180" y="560" />
              <mxPoint x="1180" y="596" />
            </Array>
          </mxGeometry>
        </mxCell>
      </root>
    </mxGraphModel>
  </diagram>
</mxfile>
